<svg width="9" height="12" viewBox="0 0 9 12" fill="none" xmlns="http://www.w3.org/2000/svg">
<path d="M8.78182 2.81929L6.69919 0.736653C6.6406 0.678068 6.56115 0.645142 6.4783 0.645142H0.646929C0.474403 0.645142 0.334534 0.785011 0.334534 0.957537V10.9958C0.334534 11.1684 0.474403 11.3082 0.646929 11.3082H8.56094C8.73346 11.3082 8.87333 11.1684 8.87333 10.9958V3.04017C8.87333 2.95732 8.8404 2.87787 8.78182 2.81929ZM6.7907 1.71172L7.80675 2.72778H6.7907V1.71172ZM0.959324 10.6834V1.26993H6.16591V3.04017C6.16591 3.2127 6.30578 3.35257 6.4783 3.35257H8.24854V10.6834H0.959324Z" fill="white"/>
</svg>
