<svg width="12" height="10" viewBox="0 0 12 10" fill="none" xmlns="http://www.w3.org/2000/svg">
<path d="M9.21864 0.0714111H2.55911C1.28237 0.0714111 0.243713 1.11007 0.243713 2.38681V5.96293C0.243713 6.98169 0.912577 7.869 1.88181 8.153L3.00005 9.27133C3.06216 9.33335 3.14623 9.36823 3.23401 9.36823C3.32169 9.36823 3.40585 9.33335 3.46787 9.27133L4.49369 8.24542H9.21864C10.4954 8.24542 11.534 7.20677 11.534 5.93002V2.38681C11.534 1.11007 10.4954 0.0714111 9.21864 0.0714111ZM10.8725 5.93002C10.8725 6.84197 10.1306 7.58388 9.21864 7.58388H4.35673C4.26904 7.58388 4.18489 7.61877 4.12287 7.68079L3.23401 8.56965L2.28735 7.62299C2.24488 7.58052 2.19165 7.55037 2.13333 7.5359C1.41028 7.35596 0.905256 6.70914 0.905256 5.96293V2.38681C0.905256 1.47486 1.64717 0.732953 2.55911 0.732953H9.21864C10.1306 0.732953 10.8725 1.47486 10.8725 2.38681V5.93002Z" fill="white"/>
</svg>
